<svg width="20" height="20" viewBox="0 0 20 20" fill="none" xmlns="http://www.w3.org/2000/svg">
<path d="M10.0002 4.54067L4.43188 3.64423C3.41886 3.48114 2.50046 4.26348 2.50035 5.28955C2.50029 5.82855 2.50024 6.35125 2.50024 6.66665L2.5 13.75C2.5 13.9393 2.5 14.1849 2.5 14.4406C2.5 15.2469 3.07709 15.9375 3.87049 16.0808L10.0002 17.1877M10.0002 4.54067V17.1877M10.0002 4.54067L15.5687 3.64428C16.5818 3.48119 17.5002 4.26368 17.5002 5.28984C17.5002 5.6555 17.5002 6.00055 17.5002 6.24998V14.467C17.5002 15.2614 16.9395 15.9455 16.1604 16.1013L14.375 16.4583L10.0002 17.1877" stroke="#000F1E" stroke-opacity="0.9" stroke-width="1.25"/>
<path d="M12.2061 8.05306L15.4132 7.50072" stroke="#1F8FFF" stroke-width="1.25" stroke-linecap="round"/>
<path d="M12.2061 10.5531L15.4132 10.0007" stroke="#1F8FFF" stroke-width="1.25" stroke-linecap="round"/>
<path d="M12.2061 13.0531L15.4132 12.5007" stroke="#1F8FFF" stroke-width="1.25" stroke-linecap="round"/>
</svg>
